<svg width="20" height="11" viewBox="0 0 20 11" fill="none" xmlns="http://www.w3.org/2000/svg">
<path d="M5.58881 9.96295C5.74064 10.1148 5.74064 10.3609 5.58881 10.5128C5.43698 10.6646 5.19082 10.6646 5.03899 10.5128L0.114452 5.58823C0.070034 5.54381 0.0386109 5.49132 0.0201829 5.43548C0.00957724 5.40334 0.00327581 5.3701 0.00127696 5.33665C-1.37301e-07 5.31527 0.000481038 5.2938 0.00271884 5.27249C0.00582176 5.24275 0.0122781 5.21402 0.0216989 5.18666C0.0403115 5.1325 0.0712303 5.08163 0.114452 5.03841L5.03899 0.113871C5.19082 -0.0379569 5.43698 -0.0379569 5.58881 0.113871C5.74064 0.265699 5.74064 0.51186 5.58881 0.663688L1.32796 4.92453H19.3964C19.6111 4.92453 19.7852 5.0986 19.7852 5.31331C19.7852 5.52803 19.6111 5.70209 19.3964 5.70209H1.32795L5.58881 9.96295Z" fill="black"/>
</svg>
