<svg width="18" height="18" viewBox="0 0 18 18" fill="none" xmlns="http://www.w3.org/2000/svg">
<mask id="path-1-inside-1_17158_132199" fill="white">
<rect width="4" height="4" rx="1"/>
</mask>
<rect width="4" height="4" rx="1" stroke="black" stroke-width="4" mask="url(#path-1-inside-1_17158_132199)"/>
<mask id="path-2-inside-2_17158_132199" fill="white">
<rect x="7" width="4" height="4" rx="1"/>
</mask>
<rect x="7" width="4" height="4" rx="1" stroke="black" stroke-width="4" mask="url(#path-2-inside-2_17158_132199)"/>
<mask id="path-3-inside-3_17158_132199" fill="white">
<rect x="14" width="4" height="4" rx="1"/>
</mask>
<rect x="14" width="4" height="4" rx="1" stroke="black" stroke-width="4" mask="url(#path-3-inside-3_17158_132199)"/>
<mask id="path-4-inside-4_17158_132199" fill="white">
<rect y="7" width="4" height="4" rx="1"/>
</mask>
<rect y="7" width="4" height="4" rx="1" stroke="black" stroke-width="4" mask="url(#path-4-inside-4_17158_132199)"/>
<mask id="path-5-inside-5_17158_132199" fill="white">
<rect x="7" y="7" width="4" height="4" rx="1"/>
</mask>
<rect x="7" y="7" width="4" height="4" rx="1" stroke="black" stroke-width="4" mask="url(#path-5-inside-5_17158_132199)"/>
<mask id="path-6-inside-6_17158_132199" fill="white">
<rect x="14" y="7" width="4" height="4" rx="1"/>
</mask>
<rect x="14" y="7" width="4" height="4" rx="1" stroke="black" stroke-width="4" mask="url(#path-6-inside-6_17158_132199)"/>
<mask id="path-7-inside-7_17158_132199" fill="white">
<rect y="14" width="4" height="4" rx="1"/>
</mask>
<rect y="14" width="4" height="4" rx="1" stroke="black" stroke-width="4" mask="url(#path-7-inside-7_17158_132199)"/>
<mask id="path-8-inside-8_17158_132199" fill="white">
<rect x="7" y="14" width="4" height="4" rx="1"/>
</mask>
<rect x="7" y="14" width="4" height="4" rx="1" stroke="black" stroke-width="4" mask="url(#path-8-inside-8_17158_132199)"/>
<mask id="path-9-inside-9_17158_132199" fill="white">
<rect x="14" y="14" width="4" height="4" rx="1"/>
</mask>
<rect x="14" y="14" width="4" height="4" rx="1" stroke="black" stroke-width="4" mask="url(#path-9-inside-9_17158_132199)"/>
</svg>
