<svg width="77" height="71" viewBox="0 0 77 71" fill="none" xmlns="http://www.w3.org/2000/svg">
<path d="M49.9853 35.4971C49.9853 41.3546 44.852 46.0879 38.4995 46.0879C32.147 46.0879 27.0137 41.3546 27.0137 35.4971C27.0137 29.6396 32.147 24.9062 38.4995 24.9062C44.852 24.9062 49.9853 29.6396 49.9853 35.4971Z" stroke="#171717" stroke-width="2" stroke-linecap="round" stroke-linejoin="round"/>
<path d="M38.501 59.9682C49.8264 59.9682 60.3818 53.8149 67.7289 43.1649C70.6164 38.9936 70.6164 31.9824 67.7289 27.8111C60.3818 17.1611 49.8264 11.0078 38.501 11.0078C27.1755 11.0078 16.6201 17.1611 9.27305 27.8111C6.38555 31.9824 6.38555 38.9936 9.27305 43.1649C16.6201 53.8149 27.1755 59.9682 38.501 59.9682Z" stroke="#171717" stroke-width="2" stroke-linecap="round" stroke-linejoin="round"/>
</svg>
