<svg width="48" height="48" viewBox="0 0 48 48" fill="none" xmlns="http://www.w3.org/2000/svg">
<path d="M44 26V18C44 8 40 4 30 4H18C8 4 4 8 4 18V30C4 40 8 44 18 44H26" stroke="#171717" stroke-width="1.5" stroke-linecap="round" stroke-linejoin="round"/>
<path d="M14.6602 28.9796L19.4202 22.7995C20.1002 21.9195 21.3602 21.7595 22.2402 22.4395L25.9002 25.3195C26.7802 25.9995 28.0402 25.8396 28.7202 24.9796L33.3402 19.0195" stroke="#171717" stroke-width="1.5" stroke-linecap="round" stroke-linejoin="round"/>
<path d="M38.9585 31.6389L39.5185 32.7789C39.7985 33.3389 40.4985 33.8589 41.1185 33.9789L41.8785 34.0989C44.1585 34.4789 44.6985 36.1589 43.0585 37.8189L42.3584 38.5189C41.8984 38.9989 41.6385 39.9189 41.7785 40.5589L41.8785 40.9789C42.4985 43.7389 41.0385 44.7989 38.6385 43.3589L38.1185 43.0589C37.4985 42.6989 36.4985 42.6989 35.8785 43.0589L35.3584 43.3589C32.9384 44.8189 31.4785 43.7389 32.1185 40.9789L32.2184 40.5589C32.3584 39.9189 32.0985 38.9989 31.6385 38.5189L30.9385 37.8189C29.2985 36.1589 29.8385 34.4789 32.1185 34.0989L32.8785 33.9789C33.4785 33.8789 34.1984 33.3389 34.4784 32.7789L35.0384 31.6389C36.1184 29.4589 37.8785 29.4589 38.9585 31.6389Z" stroke="#171717" stroke-width="1.5" stroke-linecap="round" stroke-linejoin="round"/>
</svg>
