<svg width="72" height="72" viewBox="0 0 72 72" fill="none" xmlns="http://www.w3.org/2000/svg">
<g clip-path="url(#clip0_18059_166718)">
<path d="M70.8264 49.5321C70.2448 48.8157 69.3418 48.4393 68.423 48.5291C61.0568 49.314 58.1435 53.3212 56.677 57.0196C56.0327 55.3168 55.007 53.5351 53.381 52.0292C55.9418 49.9834 57.8335 47.5429 59.2295 45.0528C61.9477 40.2599 62.8577 34.8581 63.0676 32.3242C63.2525 30.7092 61.8092 29.2171 60.1907 29.3211C52.1846 29.6773 45.9163 32.315 41.5599 37.1606C39.5542 39.3915 38.1608 41.8564 37.1942 44.2563L37.1937 35.9361C38.687 34.5126 45.0288 27.9496 45.4735 18.7763C45.7777 12.5039 43.2445 6.44059 37.9444 0.754721C37.0251 -0.276475 35.2681 -0.230966 34.3922 0.835833C32.4427 2.91732 28.5803 8.91442 27.7123 14.1329C27.0022 17.7118 27.1559 21.2496 28.1694 24.6481C29.3327 28.5487 31.6455 32.293 35.0401 35.7861L35.0407 44.2565C34.0741 41.8566 32.6807 39.3916 30.675 37.1607C26.3187 32.3151 20.0504 29.6775 12.0443 29.3213C10.4251 29.2158 8.9827 30.7104 9.16732 32.3244C9.3159 34.1013 9.84636 37.4903 11.0404 40.7385C12.418 44.5383 14.7581 48.7132 18.7308 51.9327C17.0433 53.458 15.9873 55.2794 15.3292 57.0185C15.2658 56.8509 15.1999 56.6828 15.1288 56.5141C13.7528 53.2421 10.6329 49.201 3.58367 48.5294C1.8506 48.3181 0.282202 49.9701 0.588274 51.6934C1.15118 55.404 3.60693 63.8792 14.258 64.4104V70.9229C14.258 71.5175 14.7401 71.9996 15.3347 71.9996C15.9293 71.9996 16.4114 71.5175 16.4114 70.9229V64.4072C23.4891 64.0522 26.9394 60.1867 28.6171 56.6062C30.5596 57.0454 32.6928 57.3175 35.0404 57.3799V69.8463H32.2868C31.6921 69.8463 31.2101 70.3284 31.2101 70.923C31.2101 71.5177 31.6921 71.9997 32.2868 71.9997H39.7139C40.3085 71.9997 40.7906 71.5177 40.7906 70.923C40.7906 70.3284 40.3085 69.8463 39.7139 69.8463H37.1938V57.3799C41.0895 57.2764 44.3991 56.6 47.2141 55.5276L53.813 62.0553C51.3366 61.6355 49.2851 60.6376 47.6923 59.0727C47.2679 58.6559 46.5863 58.6621 46.1697 59.0862C45.7529 59.5104 45.7589 60.1922 46.1832 60.6088C48.5542 62.938 51.718 64.2111 55.5951 64.407V70.923C55.5951 71.5177 56.0772 71.9997 56.6718 71.9997C57.2665 71.9997 57.7485 71.5177 57.7485 70.923V64.4105C68.3996 63.8794 70.8555 55.4041 71.4183 51.6935C71.5368 50.9124 71.3214 50.136 70.8264 49.5321ZM67.8871 50.7605L57.9474 60.593C58.1037 59.6305 58.3789 58.4996 58.8629 57.3486C60.4459 53.5845 63.4806 51.3715 67.8871 50.7605ZM51.0856 51.0601C49.8276 51.9406 48.4684 52.6923 47.0056 53.2906C44.569 54.2948 41.8416 54.913 38.8313 55.1403L48.4675 45.4895H56.4526C54.9926 47.7015 53.1705 49.5949 51.0856 51.0601ZM46.0428 35.9804C49.5423 33.3894 54.0058 31.8965 59.3672 31.526L46.0428 44.8705V35.9804ZM57.7226 43.3361H50.6177L60.816 33.1225C60.4992 35.6885 59.7046 39.547 57.7226 43.3361ZM43.1741 38.586C43.4061 38.3284 43.645 38.0782 43.8893 37.8344V47.0271L37.2728 53.6535C37.5361 50.101 38.6601 43.5971 43.1741 38.586ZM37.1935 32.7841V25.7911L42.9638 21.5159C41.9404 26.5817 39.0723 30.5978 37.1935 32.7841ZM43.3263 18.5673L37.1935 23.1111V3.13912C41.4914 8.07804 43.5534 13.2629 43.3263 18.5673ZM35.0401 3.46342V16.4486L30.4581 12.1065C31.6492 8.36057 33.6326 5.31234 35.0401 3.46342ZM29.8246 14.5519C29.829 14.5298 29.834 14.5081 29.8385 14.486L35.0401 19.4153V32.5877C30.3114 27.0014 28.5558 20.9455 29.8246 14.5519ZM29.0608 38.5861C33.5751 43.5975 34.6989 50.1017 34.9622 53.6537L23.2624 41.9363V34.1802C25.4936 35.3068 27.4307 36.7763 29.0608 38.5861ZM12.8677 31.526C15.9076 31.736 18.6587 32.3071 21.109 33.2348V39.7795L12.8677 31.526ZM11.4189 33.1226L17.4489 39.1617H12.7601C12.0059 36.8625 11.6183 34.7371 11.4189 33.1226ZM16.0539 45.8916C15.0176 44.3983 14.204 42.8427 13.5633 41.3151H19.599L33.4035 55.1404C26.5036 54.6972 19.981 51.7025 16.0539 45.8916ZM20.5177 53.2368C21.2162 53.6957 21.9586 54.1257 22.745 54.5231L16.6188 60.5838C16.9779 58.4044 17.9471 55.3674 20.5177 53.2368ZM13.1157 57.282C13.6147 58.4496 13.8969 59.6064 14.0564 60.59L4.11972 50.7605C8.49933 51.3678 11.5244 53.5584 13.1157 57.282ZM2.95774 52.6401L12.4747 62.0543C6.07631 60.969 3.77518 56.2317 2.95774 52.6401ZM18.1903 62.0584L24.8568 55.4633C25.3868 55.6696 25.9342 55.8618 26.5003 56.0385C24.8137 59.4011 22.0288 61.4174 18.1903 62.0584ZM51.5881 53.3195C54.0849 55.4452 55.0338 58.433 55.3881 60.5841L49.3389 54.6C50.1339 54.2057 50.882 53.7766 51.5881 53.3195ZM59.5323 62.0541L69.0491 52.64C68.2318 56.2316 65.9302 60.9687 59.5323 62.0541Z" fill="black"/>
<path d="M7.74515 15.6504L11.0525 16.508C11.6127 16.6582 12.2178 16.3162 12.3649 15.7361C12.5142 15.1606 12.1685 14.5728 11.593 14.4237L8.28565 13.5661C7.71026 13.4166 7.12252 13.7623 6.97322 14.338C6.82392 14.9135 7.16961 15.5011 7.74515 15.6504Z" fill="black"/>
<path d="M11.3712 7.53339L14.1587 9.50907C14.6385 9.85046 15.3138 9.74164 15.6598 9.25325C16.0036 8.76815 15.889 8.096 15.4039 7.75218L12.6164 5.77649C12.1313 5.43266 11.4592 5.54708 11.1154 6.03232C10.7715 6.51755 10.8859 7.18956 11.3712 7.53339Z" fill="black"/>
<path d="M19.3719 4.64137C19.6063 5.19365 20.2525 5.43928 20.7856 5.20685C21.3322 4.97256 21.5854 4.3396 21.3511 3.79307L20.0051 0.652677C19.7708 0.105998 19.1379 -0.146669 18.5913 0.0871913C18.0448 0.321482 17.7915 0.954442 18.0258 1.50098L19.3719 4.64137Z" fill="black"/>
<path d="M59.6422 15.7361C59.7893 16.3163 60.3944 16.6582 60.9546 16.508L64.2619 15.6504C64.8376 15.5011 65.1832 14.9135 65.0339 14.3379C64.8846 13.7623 64.2967 13.4167 63.7214 13.566L60.4141 14.4236C59.8386 14.5728 59.4929 15.1604 59.6422 15.7361Z" fill="black"/>
<path d="M57.2266 9.70733C57.4419 9.70733 57.6593 9.64301 57.8483 9.50907L60.6358 7.53339C61.1209 7.18942 61.2355 6.51741 60.8917 6.03232C60.5477 5.54708 59.8757 5.43266 59.3906 5.77649L56.6031 7.75217C56.118 8.09615 56.0034 8.76815 56.3473 9.25325C56.5571 9.54927 56.8892 9.70733 57.2266 9.70733Z" fill="black"/>
<path d="M51.2212 5.20695C51.7544 5.43938 52.4006 5.1936 52.635 4.64147L53.981 1.50108C54.2153 0.954543 53.9621 0.321583 53.4155 0.0872923C52.869 -0.146855 52.2359 0.106242 52.0017 0.652778L50.6557 3.79317C50.4214 4.3397 50.6747 4.97266 51.2212 5.20695Z" fill="black"/>
</g>
<defs>
<clipPath id="clip0_18059_166718">
<rect width="72" height="72" fill="white"/>
</clipPath>
</defs>
</svg>
