<svg width="72" height="72" viewBox="0 0 72 72" fill="none" xmlns="http://www.w3.org/2000/svg">
<path d="M49.7427 35.5547V37.0529C49.7427 37.6355 50.2149 38.1076 50.7974 38.1076C51.3798 38.1076 51.852 37.6355 51.852 37.0529V35.5547C51.852 34.9721 51.3798 34.5 50.7974 34.5C50.2149 34.5 49.7427 34.9721 49.7427 35.5547Z" fill="black"/>
<path d="M66.1287 32.2207C66.1287 31.9602 66.0542 31.707 65.9128 31.4875L60.4764 23.0556C60.2233 22.6637 59.7937 22.4297 59.3271 22.4297H51.2763C50.5219 22.4297 49.9082 23.0434 49.9082 23.7978V32.2207C49.9082 32.975 50.5219 33.5888 51.2763 33.5888H64.7604C65.515 33.5887 66.1287 32.975 66.1287 32.2207ZM52.0177 31.4793V24.5389H58.9232L63.3979 31.4793H52.0177Z" fill="black"/>
<path d="M57.9593 45.9609C55.8453 45.9609 54.1255 47.6808 54.1255 49.7949C54.1255 51.9088 55.8453 53.6288 57.9593 53.6288C60.0734 53.6288 61.7932 51.9089 61.7932 49.7949C61.7932 47.6808 60.0734 45.9609 57.9593 45.9609ZM57.9593 51.5193C57.0084 51.5193 56.2349 50.7457 56.2349 49.7948C56.2349 48.8437 57.0084 48.0702 57.9593 48.0702C58.9102 48.0702 59.6838 48.8437 59.6838 49.7948C59.6838 50.7457 58.9102 51.5193 57.9593 51.5193Z" fill="black"/>
<path d="M14.6913 45.9609C12.5773 45.9609 10.8574 47.6808 10.8574 49.7949C10.8574 51.9088 12.5773 53.6288 14.6913 53.6288C16.8053 53.6288 18.5251 51.9089 18.5251 49.7949C18.525 47.6808 16.8051 45.9609 14.6913 45.9609ZM14.6913 51.5193C13.7404 51.5193 12.9668 50.7457 12.9668 49.7948C12.9668 48.8437 13.7404 48.0702 14.6913 48.0702C15.6422 48.0702 16.4158 48.8437 16.4158 49.7948C16.4156 50.7457 15.642 51.5193 14.6913 51.5193Z" fill="black"/>
<path d="M69.7829 44.2292V40.9843C69.7829 40.4016 69.3107 39.9296 68.7282 39.9296C68.1458 39.9296 67.6735 40.4016 67.6735 40.9843V44.1828H63.2589C61.8746 42.8745 60.0095 42.0699 57.959 42.0699C55.9086 42.0699 54.0435 42.8745 52.6592 44.1828H48.363V21.4146C48.363 21.122 48.601 20.8841 48.8935 20.8841H60.6254C60.8066 20.8841 60.9733 20.9749 61.0714 21.1272L67.5885 31.2354C67.6439 31.3214 67.6733 31.4208 67.6733 31.523V36.6925C67.6733 37.2751 68.1455 37.7472 68.728 37.7472C69.3104 37.7472 69.7826 37.2751 69.7826 36.6925V31.523C69.7826 31.0147 69.6371 30.5201 69.3615 30.0924L62.8442 19.9841C62.3558 19.2268 61.5264 18.7747 60.6254 18.7747H48.8935C47.4378 18.7747 46.2536 19.959 46.2536 21.4146V25.0077H44.7589C43.8209 25.0077 43.0577 25.7709 43.0577 26.709V28.5681L41.429 26.1832C38.1606 21.3973 33.7146 17.9523 28.6838 16.0855C28.6763 16.0827 28.6689 16.0799 28.6614 16.0772C28.2394 15.921 27.8132 15.776 27.3833 15.6423C27.3512 15.6323 27.3193 15.6223 27.2872 15.6125C26.8654 15.4829 26.4398 15.3644 26.0112 15.2567C25.9848 15.2501 25.9585 15.2435 25.932 15.237C22.135 14.2958 18.0848 14.2114 14.0083 15.0784C13.4387 15.1996 13.075 15.7597 13.1962 16.3294C13.3174 16.899 13.8767 17.2631 14.4472 17.1415C16.1748 16.774 17.8974 16.593 19.5947 16.5885L12.8586 39.8361C11.4699 38.8577 10.1677 37.7216 8.97383 36.4346C8.9495 36.4083 8.92573 36.3813 8.90141 36.3549C8.77512 36.2175 8.65011 36.0783 8.52622 35.9377C8.47067 35.8745 8.41555 35.8109 8.36056 35.7472C8.26086 35.6317 8.16214 35.5148 8.06413 35.3971C8.01449 35.3375 7.96428 35.2784 7.9152 35.2182C7.77922 35.0517 7.64478 34.8831 7.51217 34.7124C7.4683 34.6559 7.42527 34.5985 7.38181 34.5415C7.28042 34.4089 7.18002 34.2752 7.08074 34.1399C7.03785 34.0814 6.99481 34.023 6.95235 33.9641C6.81735 33.7771 6.68361 33.5887 6.55269 33.397L4.92018 31.0065C4.92004 31.0064 4.92004 31.0064 4.9199 31.0062L3.53052 28.9718C3.15871 28.4273 3.07926 27.6491 3.32296 26.9409L5.3983 20.9126C5.64215 20.2043 6.18383 19.6399 6.812 19.4397L10.4369 18.2846C10.9919 18.1078 11.2985 17.5145 11.1216 16.9595C10.9447 16.4046 10.3512 16.0983 9.79648 16.2749L6.1716 17.43C4.9019 17.8346 3.86718 18.8799 3.40382 20.2259L1.32862 26.2542C0.865264 27.6003 1.03725 29.061 1.78875 30.1614L2.9946 31.927V44.1828H2.70492C1.21345 44.1828 0 45.3962 0 46.8878V47.6106C0 49.1021 1.21345 50.3157 2.70506 50.3157H6.98638V50.3155C7.25567 54.3322 10.6073 57.5183 14.6911 57.5183C18.7748 57.5183 22.1263 54.3322 22.3958 50.3155V50.3157H50.2546V50.3155C50.5239 54.3322 53.8756 57.5183 57.9593 57.5183C62.0431 57.5183 65.3947 54.3322 65.664 50.3155V50.3157H69.2949C70.7864 50.3157 72 49.1021 72 47.6106V46.8878C71.9999 45.563 71.0419 44.4599 69.7829 44.2292ZM5.10397 35.0076C5.1321 35.0472 5.16191 35.0853 5.19018 35.1248C5.31238 35.2954 5.43669 35.4635 5.56199 35.6304C5.61627 35.7027 5.66971 35.7758 5.72469 35.8475C6.30252 36.6028 6.911 37.3196 7.54719 37.9978C7.54888 37.9996 7.55056 38.0015 7.55225 38.0033V44.1828H5.10397V35.0076ZM7.13164 48.2065H2.70506C2.37656 48.2063 2.10937 47.9391 2.10937 47.6106V46.8878C2.10937 46.5593 2.37656 46.2921 2.70506 46.2921H7.80973C7.5043 46.8899 7.27311 47.5317 7.13164 48.2065ZM45.1671 32.9955C45.1671 32.9851 45.1671 32.9748 45.1671 32.9644V27.117H46.2537V44.1826H45.1671V32.9955ZM43.0577 39.8995V44.1828H37.4228L40.0681 43.3399C41.3378 42.9351 42.3725 41.8899 42.8358 40.5438L43.0577 39.8995ZM39.6873 27.3728L42.7094 31.7979C43.0814 32.3424 43.1608 33.1207 42.917 33.829L40.8415 39.8571C40.5978 40.5655 40.056 41.1298 39.4278 41.33L34.322 42.9571C31.7369 43.7807 29.1353 44.1802 26.5857 44.1801C26.0803 44.1801 25.5771 44.1638 25.0765 44.1326L32.0516 20.061C34.9954 21.8573 37.6014 24.3185 39.6873 27.3728ZM21.7646 16.6797C24.7051 16.9369 27.5397 17.732 30.1571 19.0195L22.9464 43.9042C20.043 43.4602 17.26 42.4851 14.712 41.0188L21.7646 16.6797ZM9.66176 40.022C10.6475 40.8682 11.6842 41.6324 12.7632 42.3134C11.6011 42.6131 10.5454 43.1787 9.66176 43.9389V40.022ZM14.6911 55.409C11.5949 55.409 9.0762 52.8902 9.0762 49.7941C9.0762 46.698 11.5951 44.1792 14.6911 44.1792C17.7871 44.1792 20.3059 46.698 20.3059 49.7941C20.3059 52.8902 17.7871 55.409 14.6911 55.409ZM50.3996 48.2065H22.2503C22.1089 47.5317 21.8777 46.8899 21.5723 46.2921H51.0779C50.7723 46.8899 50.5412 47.5317 50.3996 48.2065ZM57.9592 55.409C54.8631 55.409 52.3443 52.8902 52.3443 49.7941C52.3443 46.698 54.8632 44.1792 57.9592 44.1792C61.0552 44.1792 63.5741 46.698 63.5741 49.7941C63.5741 52.8902 61.0552 55.409 57.9592 55.409ZM69.2948 48.2063H65.5186C65.377 47.5316 65.146 46.8898 64.8404 46.292H68.7281H69.2947C69.623 46.292 69.8904 46.5592 69.8904 46.8877V47.6106H69.8905C69.8905 47.9391 69.6233 48.2063 69.2948 48.2063Z" fill="black"/>
</svg>
