<svg width="72" height="72" viewBox="0 0 72 72" fill="none" xmlns="http://www.w3.org/2000/svg">
<path d="M26.9381 16.1289H26.9384C26.9384 15.6569 27.1225 15.2136 27.4567 14.8807C27.7903 14.5484 28.2349 14.3635 28.7036 14.3687C29.6827 14.3729 31.515 14.5003 33.2025 15.2715C33.0771 15.1544 32.9539 15.035 32.8358 14.9118C32.4323 14.4906 32.4467 13.8221 32.8678 13.4185C33.289 13.0151 33.9575 13.0293 34.3611 13.4506C34.5432 13.6407 34.7389 13.8208 34.9435 13.9918V10.2542C34.9435 9.67099 35.4162 9.19807 35.9996 9.19807C36.5827 9.19807 37.0557 9.67085 37.0557 10.2542V14.2191C38.8649 12.8543 39.9011 10.781 39.9011 8.50113C39.9011 6.16521 38.8157 4.04416 36.9235 2.68178C36.6196 2.46296 36.3501 2.29112 36.1436 2.16737C35.937 2.29126 35.667 2.46339 35.3631 2.6822C33.3015 4.1665 32.2001 6.57372 32.4173 9.12129C32.4666 9.70235 32.0358 10.2137 31.4546 10.2632C30.8742 10.3118 30.362 9.88165 30.3127 9.30045C30.032 6.0056 31.4588 2.89061 34.1291 0.968118C34.603 0.626821 35.012 0.378476 35.2718 0.230398C35.8094 -0.0761653 36.4766 -0.0768684 37.013 0.22871C37.2729 0.376648 37.6824 0.625133 38.1577 0.967415C40.6081 2.73142 42.0137 5.47727 42.0137 8.50085C42.0137 11.0144 41.0417 13.3354 39.3061 15.0607C40.8421 14.4778 42.4146 14.3722 43.2959 14.3684C43.2986 14.3684 43.301 14.3684 43.3035 14.3684C43.7711 14.3684 44.211 14.55 44.5427 14.8805C44.877 15.2135 45.061 15.6567 45.061 16.1286V20.3083C45.061 22.6314 44.1783 24.7519 42.7313 26.3532C42.9397 26.3431 43.131 26.3382 43.2956 26.3375C43.2983 26.3375 43.3007 26.3375 43.3032 26.3375C43.7708 26.3375 44.2107 26.519 44.5424 26.8495C44.8767 27.1825 45.0608 27.6257 45.0608 28.0977V32.2774C45.0608 34.6005 44.178 36.721 42.731 38.3223C42.9394 38.3121 43.1307 38.3072 43.2953 38.3065C43.298 38.3065 43.3004 38.3065 43.3029 38.3065C43.7705 38.3065 44.2104 38.4881 44.5421 38.8185C44.8764 39.1515 45.0605 39.5948 45.0605 40.0667V44.2464C45.0605 46.5695 44.1778 48.69 42.7307 50.2913C42.9391 50.2812 43.1304 50.2763 43.2951 50.2756C43.2977 50.2756 43.3001 50.2756 43.3027 50.2756C43.7702 50.2756 44.2101 50.4571 44.5418 50.7876C44.8761 51.1206 45.0602 51.5638 45.0602 52.0358V56.2153C45.0602 60.8469 41.5529 64.6729 37.0551 65.1817V70.9438C37.0551 71.527 36.5823 71.9999 35.999 71.9999C35.4158 71.9999 34.9429 71.5271 34.9429 70.9438V65.1817C30.4451 64.6729 26.9378 60.8469 26.9378 56.2153V52.0358C26.9378 51.5637 27.1219 51.1204 27.4562 50.7876C27.7897 50.4554 28.2344 50.278 28.7031 50.2756C28.8678 50.2763 29.0591 50.2812 29.2674 50.2913C27.8204 48.69 26.9377 46.5695 26.9377 44.2464V40.0667C26.9377 39.5946 27.1217 39.1514 27.456 38.8185C27.7896 38.4864 28.2342 38.3064 28.7029 38.3065C28.8676 38.3072 29.059 38.3121 29.2673 38.3223C27.8202 36.721 26.9375 34.6005 26.9375 32.2774V28.0977C26.9375 27.6256 27.1216 27.1824 27.4559 26.8495C27.7894 26.5172 28.2341 26.3348 28.7028 26.3375C28.8675 26.3382 29.0589 26.3431 29.2671 26.3532C27.8201 24.7519 26.9374 22.6314 26.9374 20.3083V16.1289H26.9381ZM37.0911 63.0487C40.4037 62.5388 42.9486 59.6688 42.9486 56.2157V52.3945C40.6077 52.4716 37.0911 53.2651 37.0911 57.3313V63.0487ZM37.0911 51.0795C40.4037 50.5696 42.9486 47.6997 42.9486 44.2465V40.4253C40.6077 40.5024 37.0911 41.2959 37.0911 45.3621V51.0795ZM37.0911 39.1105C40.4037 38.6006 42.9486 35.7305 42.9486 32.2775V28.4563C40.6077 28.5333 37.0911 29.3269 37.0911 33.3931V39.1105ZM37.0911 27.1414C40.4037 26.6315 42.9486 23.7615 42.9486 20.3085V16.4872C40.6077 16.5643 37.0911 17.3579 37.0911 21.424V27.1414ZM29.0506 52.3945V56.2157C29.0506 59.6688 31.5953 62.5388 34.908 63.0487V57.3314C34.9079 53.2653 31.3914 52.4717 29.0506 52.3945ZM29.0506 40.4255V44.2467C29.0506 47.6997 31.5953 50.5697 34.908 51.0797V45.3624C34.9079 41.2959 31.3914 40.5025 29.0506 40.4255ZM29.0506 28.4564V32.2776C29.0506 35.7307 31.5953 38.6007 34.908 39.1106V33.3934C34.9079 29.3269 31.3914 28.5335 29.0506 28.4564ZM29.0506 20.3085C29.0506 23.7615 31.5953 26.6315 34.908 27.1414V21.4242C34.908 17.358 31.3914 16.5646 29.0506 16.4874V20.3085Z" fill="black"/>
<path d="M5.68864 19.2729C6.02474 18.9405 6.46925 18.7643 6.9419 18.7655C7.73418 18.7742 9.13495 18.8766 10.5083 19.3966C10.1318 18.9743 10.1535 18.3269 10.5654 17.9325C10.9867 17.5289 11.6552 17.5433 12.0585 17.9644C12.1715 18.0822 12.291 18.1956 12.4138 18.3054V15.1394C12.4138 14.5562 12.8865 14.0833 13.4699 14.0833C14.0532 14.0833 14.526 14.556 14.526 15.1394V18.5274C16.0403 17.3109 16.9025 15.5172 16.9025 13.5523C16.9025 11.4697 15.935 9.57889 14.2478 8.36431C13.9985 8.18488 13.775 8.04073 13.6001 7.93428C13.425 8.04087 13.2014 8.18516 12.9517 8.36473C11.3097 9.54683 10.3445 11.3894 10.3033 13.4199C10.3017 13.4957 10.3014 13.5715 10.3026 13.6475C10.3109 14.2306 9.84468 14.7102 9.26137 14.7183C9.25631 14.7185 9.25125 14.7185 9.24618 14.7185C8.6699 14.7185 8.19852 14.2554 8.19051 13.6771C8.1891 13.5772 8.18938 13.4772 8.19135 13.377C8.2462 10.6762 9.53123 8.22453 11.7174 6.65065C12.0521 6.40962 12.3907 6.19025 12.7238 5.99843C13.2644 5.68695 13.938 5.68807 14.4815 6.00153C14.8134 6.19306 15.1499 6.41117 15.4816 6.65009C17.7269 8.2663 19.0144 10.7821 19.0144 13.5523C19.0144 15.7118 18.2288 17.7146 16.8198 19.2593C18.0631 18.8573 19.2798 18.7735 19.9974 18.7657C20.4664 18.7603 20.9147 18.9406 21.2508 19.273C21.588 19.6065 21.7736 20.0514 21.7736 20.5259V24.243C21.7736 26.2886 21.0257 28.1617 19.791 29.607C19.8634 29.6049 19.9327 29.6035 19.9974 29.6027C20.4664 29.5973 20.9147 29.7775 21.2508 30.11C21.588 30.4435 21.7736 30.8884 21.7736 31.3629V35.08C21.7736 37.1256 21.0257 38.9987 19.7911 40.4442C19.8635 40.4421 19.9329 40.4407 19.9977 40.4398C20.4703 40.4321 20.915 40.6148 21.2511 40.9473C21.5882 41.2808 21.7738 41.7257 21.7738 42.2V45.9172C21.7738 47.9627 21.0258 49.8358 19.7913 51.2812C19.8637 51.2791 19.933 51.2777 19.9978 51.2768C20.4705 51.2689 20.9151 51.4518 21.2512 51.7843C21.5883 52.1178 21.7739 52.5627 21.7739 53.037V56.7542C21.7739 60.9686 18.6054 64.4543 14.526 64.9605V70.09C14.526 70.6731 14.0532 71.146 13.4699 71.146C12.8865 71.146 12.4138 70.6733 12.4138 70.09V64.9605C8.33437 64.4543 5.1658 60.9684 5.1658 56.7542V53.037C5.1658 52.5627 5.35143 52.1179 5.6885 51.7843C6.0246 51.4519 6.46953 51.2718 6.9419 51.2768C7.00658 51.2775 7.07591 51.2791 7.14834 51.2812C5.91365 49.8357 5.16566 47.9627 5.16566 45.9172V42.1999C5.16566 41.7256 5.35128 41.2808 5.68836 40.9472C6.02446 40.6148 6.4694 40.4315 6.94176 40.4397C7.00645 40.4404 7.07577 40.4419 7.14819 40.444C5.9135 38.9985 5.16552 37.1256 5.16552 35.0799V30.6782C5.16552 30.1316 5.58261 29.6752 6.12683 29.6263C6.17647 29.6218 6.56502 29.5899 7.14819 29.6069C5.9135 28.1614 5.16552 26.2883 5.16552 24.2427V20.5256H5.16538C5.1658 20.0514 5.35143 19.6065 5.68864 19.2729ZM14.558 62.8238C17.4534 62.3217 19.6619 59.7911 19.6619 56.7546V53.3991C17.604 53.4897 14.558 54.2228 14.558 57.7649V62.8238ZM14.558 51.9867C17.4534 51.4845 19.6619 48.954 19.6619 45.9175V42.562C17.604 42.6526 14.558 43.3856 14.558 46.9277V51.9867ZM14.558 41.1494C17.4534 40.6472 19.6619 38.1167 19.6619 35.0802V31.7248C17.604 31.8154 14.558 32.5483 14.558 36.0906V41.1494ZM14.558 30.3123C17.4534 29.8101 19.6619 27.2795 19.6619 24.243V20.8874C17.604 20.978 14.558 21.7109 14.558 25.2531V30.3123ZM7.27799 56.7546C7.27799 59.7913 9.48651 62.3217 12.3818 62.8238V57.7647C12.3818 54.2226 9.3359 53.4896 7.27799 53.399V56.7546ZM7.27799 45.9173C7.27799 48.9541 9.48651 51.4844 12.3818 51.9866V46.9274C12.3818 43.3854 9.3359 42.6521 7.27799 42.5617V45.9173ZM12.3818 41.1494V36.0903C12.3818 34.7796 12.0013 33.7932 11.2185 33.0744C10.0832 32.032 8.35054 31.777 7.27813 31.726V35.08H7.27799C7.27799 38.117 9.48651 40.6472 12.3818 41.1494ZM7.27799 24.2432C7.27799 27.2798 9.48651 29.8102 12.3818 30.3124V25.2533C12.3818 21.7115 9.3359 20.9781 7.27799 20.8876V24.2432Z" fill="black"/>
<path d="M50.7488 19.2729C51.0849 18.9405 51.5301 18.7643 52.002 18.7655C52.7943 18.7742 54.1952 18.8766 55.5684 19.3966C55.192 18.9743 55.2136 18.3269 55.6255 17.9325C56.0467 17.5289 56.7154 17.5433 57.1187 17.9644C57.2316 18.0822 57.3511 18.1956 57.4739 18.3054V15.1394C57.4739 14.5562 57.9467 14.0833 58.53 14.0833C59.1133 14.0833 59.5861 14.556 59.5861 15.1394V18.5274C61.1005 17.3109 61.9627 15.5172 61.9627 13.5523C61.9627 11.4697 60.9951 9.57889 59.3079 8.36431C59.0586 8.18488 58.8351 8.04073 58.6602 7.93428C58.4851 8.04087 58.2615 8.18516 58.0118 8.36473C56.3698 9.54683 55.4046 11.3894 55.3634 13.4199C55.3618 13.4957 55.3616 13.5715 55.3627 13.6475C55.371 14.2306 54.9048 14.7102 54.3215 14.7183C54.3164 14.7185 54.3114 14.7185 54.3063 14.7185C53.7299 14.7185 53.2586 14.2554 53.2506 13.6771C53.2492 13.5772 53.2495 13.4772 53.2515 13.377C53.3063 10.6762 54.5914 8.22453 56.7775 6.65065C57.1122 6.40962 57.4508 6.19025 57.784 5.99843C58.3245 5.68695 58.9981 5.68807 59.5416 6.00153C59.8735 6.19306 60.21 6.41117 60.5418 6.65009C62.7874 8.26616 64.075 10.7821 64.075 13.5523C64.075 15.7118 63.2893 17.7146 61.8804 19.2593C63.1237 18.8573 64.3403 18.7735 65.058 18.7657C65.5261 18.7603 65.9751 18.9406 66.3113 19.273C66.6486 19.6065 66.8342 20.0514 66.8342 20.5259V24.243C66.8342 26.2886 66.0862 28.1617 64.8515 29.607C64.9239 29.6049 64.9933 29.6035 65.058 29.6027C65.5261 29.5973 65.9751 29.7775 66.3113 30.11C66.6486 30.4435 66.8342 30.8884 66.8342 31.3629V35.08C66.8342 37.1256 66.0862 38.9987 64.8517 40.4442C64.9241 40.4421 64.9934 40.4407 65.0582 40.4398C65.5281 40.4321 65.9754 40.6148 66.3116 40.9473C66.6487 41.2808 66.8343 41.7257 66.8343 42.2V45.9172C66.8343 47.9627 66.0863 49.8358 64.8518 51.2812C64.9242 51.2791 64.9935 51.2777 65.0584 51.2768C65.5282 51.2689 65.9755 51.4518 66.3118 51.7843C66.6488 52.1178 66.8345 52.5627 66.8345 53.037V56.7542C66.8345 60.9686 63.6659 64.4543 59.5865 64.9605V70.09C59.5865 70.6731 59.1137 71.146 58.5304 71.146C57.9471 71.146 57.4743 70.6733 57.4743 70.09V64.9605C53.3949 64.4543 50.2263 60.9684 50.2263 56.7542V53.037C50.2263 52.5627 50.412 52.1179 50.7491 51.7843C51.0851 51.4519 51.5335 51.2718 52.0024 51.2768C52.0671 51.2775 52.1365 51.2791 52.2089 51.2812C50.9742 49.8357 50.2263 47.9627 50.2263 45.9172V42.1999C50.2263 41.7256 50.412 41.2808 50.7491 40.9472C51.0851 40.6148 51.5335 40.4315 52.0024 40.4397C52.0671 40.4404 52.1365 40.4419 52.2089 40.444C50.9742 38.9985 50.2263 37.1256 50.2263 35.0799V31.3627C50.2263 30.8884 50.412 30.4435 50.7492 30.1099C51.0853 29.7773 51.5321 29.5961 52.0024 29.6025C52.0671 29.6032 52.1365 29.6048 52.209 29.6069C50.9743 28.1614 50.2263 26.2884 50.2263 24.2429V20.5257H50.2258C50.2259 20.0514 50.4115 19.6065 50.7488 19.2729ZM59.6183 62.8238C62.5136 62.3217 64.7221 59.7911 64.7221 56.7546V53.3991C62.6642 53.4897 59.6183 54.2228 59.6183 57.7649V62.8238ZM59.6183 51.9867C62.5136 51.4845 64.7221 48.954 64.7221 45.9175V42.562C62.6642 42.6524 59.6183 43.3855 59.6183 46.9277V51.9867ZM59.6183 41.1496C62.5136 40.6474 64.7221 38.1168 64.7221 35.0803V31.725C62.6642 31.8154 59.6183 32.5483 59.6183 36.0906V41.1496ZM59.6183 30.3124C62.5136 29.8102 64.7221 27.2797 64.7221 24.2432V20.8877C62.6642 20.9783 59.6183 21.7112 59.6183 25.2534V30.3124ZM52.3381 56.7546C52.3381 59.7913 54.5466 62.3217 57.442 62.8238V57.7647C57.442 54.2226 54.396 53.4896 52.3381 53.399V56.7546ZM52.3381 45.9175C52.3381 48.9543 54.5466 51.4845 57.442 51.9867V46.9276C57.4418 43.3854 54.3959 42.6523 52.3381 42.5619V45.9175ZM52.3381 35.0802C52.3381 38.117 54.5466 40.6472 57.442 41.1494V36.0903C57.4418 32.5485 54.396 31.8153 52.3381 31.7247V35.0802ZM52.338 24.243C52.338 27.2797 54.5465 29.8101 57.4418 30.3123V25.2531C57.4418 21.7113 54.3959 20.978 52.338 20.8874V24.243Z" fill="black"/>
</svg>
