<svg width="72" height="72" viewBox="0 0 72 72" fill="none" xmlns="http://www.w3.org/2000/svg">
<g clip-path="url(#clip0_18059_166798)">
<path d="M25.2158 44.4297H26.0348C26.6174 44.4297 27.0895 43.9575 27.0895 43.375C27.0895 42.7925 26.6174 42.3203 26.0348 42.3203H25.2158C24.6332 42.3203 24.1611 42.7925 24.1611 43.375C24.1611 43.9575 24.6334 44.4297 25.2158 44.4297Z" fill="black"/>
<path d="M66.4099 58.0283C66.297 55.3666 65.2271 52.948 63.5366 51.1089V16.1385C63.5366 15.5561 63.0645 15.0839 62.4819 15.0839C61.8993 15.0839 61.4272 15.5561 61.4272 16.1385V49.3256C60.806 48.9222 60.1408 48.58 59.4415 48.3079V6.20452H61.1169C61.288 6.20452 61.4272 6.34373 61.4272 6.51487V12.1116C61.4272 12.6941 61.8993 13.1663 62.4819 13.1663C63.0645 13.1663 63.5366 12.6941 63.5366 12.1116V6.51487C63.5366 5.18062 62.4511 4.09514 61.1169 4.09514H58.5233C58.5004 4.09514 58.4776 4.09598 58.4551 4.09739C58.4326 4.09584 58.4099 4.09514 58.3869 4.09514H51.8543C51.3712 4.09514 50.9039 4.23787 50.5028 4.50787L39.2898 12.0596C38.621 12.5101 38.2216 13.2604 38.2216 14.0666V39.5865H36.2358V35.454C36.2358 34.1197 35.1503 33.0342 33.8161 33.0342H32.4136V22.8954C32.4136 21.5612 31.3282 20.4757 29.9939 20.4757H26.6804V1.05469C26.6804 0.472219 26.2083 0 25.6257 0C25.0431 0 24.571 0.472219 24.571 1.05469V20.4756H21.2574C19.9232 20.4756 18.8377 21.561 18.8377 22.8953V33.0341H17.4352C16.101 33.0341 15.0155 34.1196 15.0155 35.4538V39.5864H13.3401C12.0059 39.5864 10.9204 40.6718 10.9204 42.0061V50.0386C7.69106 51.6711 5.43052 54.9506 5.25066 58.7658C2.23889 59.4323 0 62.1363 0 65.3034C0 68.996 3.00403 72 6.69656 72H12.3846C12.9672 72 13.4392 71.5278 13.4392 70.9453C13.4392 70.3628 12.9672 69.8906 12.3846 69.8906H6.69656C4.16728 69.8906 2.10938 67.8329 2.10938 65.3034C2.10938 62.9073 3.97997 60.8982 6.36792 60.7295C6.9203 60.6905 7.34836 60.2311 7.34836 59.6775V59.2585C7.34836 54.9131 10.7404 51.3449 15.0155 51.0623V70.9453C15.0155 71.5278 15.4876 72 16.0702 72H25.0113C25.5939 72 26.066 71.5278 26.066 70.9453C26.066 70.3628 25.5939 69.8906 25.0113 69.8906H17.1249V35.454C17.1249 35.2828 17.2641 35.1436 17.4352 35.1436H33.816C33.9871 35.1436 34.1263 35.2828 34.1263 35.454V46.8522C34.1263 47.4346 34.5984 47.9069 35.181 47.9069C35.7636 47.9069 36.2357 47.4346 36.2357 46.8522V41.6959H38.2215V48.4185C34.4232 50.0158 31.7098 53.7005 31.5262 58.0283C28.3236 58.7119 25.936 61.5772 25.936 64.9358C25.936 68.831 29.1049 72 33 72H57.0215C57.6041 72 58.0762 71.5278 58.0762 70.9453C58.0762 70.3628 57.6041 69.8906 57.0215 69.8906H32.9998C30.2678 69.8906 28.0451 67.6679 28.0451 64.9358C28.0451 62.3478 30.0656 60.1777 32.645 59.9955C33.1973 59.9566 33.6254 59.4972 33.6254 58.9435V58.4973C33.6254 53.6351 37.581 49.6794 42.4433 49.6794C44.5911 49.6794 46.6605 50.4609 48.2705 51.8798C48.669 52.2311 49.2667 52.2311 49.6652 51.8798C51.2754 50.4609 53.3448 49.6794 55.4925 49.6794C60.3547 49.6794 64.3103 53.6351 64.3103 58.4973V58.9435C64.3103 59.4972 64.7384 59.9566 65.2908 59.9955C67.8701 60.1777 69.8906 62.3478 69.8906 64.9358C69.8906 67.6679 67.6679 69.8906 64.936 69.8906H60.9805C60.3979 69.8906 59.9258 70.3628 59.9258 70.9453C59.9258 71.5278 60.3979 72 60.9805 72H64.936C68.8312 72 72 68.831 72 64.9358C72 61.5772 69.6125 58.7119 66.4099 58.0283ZM15.0155 48.9493C14.3342 48.985 13.6702 49.0871 13.0297 49.2493V42.0062C13.0297 41.8351 13.169 41.6959 13.3401 41.6959H15.0155V48.9493ZM30.3041 33.0344H20.9471V22.8956C20.9471 22.7244 21.0863 22.5852 21.2574 22.5852H29.9938C30.1649 22.5852 30.3041 22.7244 30.3041 22.8956V33.0344ZM57.332 9.55533H50.1964C49.6138 9.55533 49.1417 10.0275 49.1417 10.61C49.1417 11.1925 49.6138 11.6647 50.1964 11.6647H57.332V15.0157H43.3711C42.7885 15.0157 42.3165 15.4879 42.3165 16.0703C42.3165 16.6528 42.7885 17.125 43.3711 17.125H57.332V20.4758H50.1964C49.6138 20.4758 49.1417 20.9481 49.1417 21.5305C49.1417 22.113 49.6138 22.5852 50.1964 22.5852H57.332V25.936H43.3711C42.7885 25.936 42.3165 26.4083 42.3165 26.9907C42.3165 27.5732 42.7885 28.0454 43.3711 28.0454H57.332V31.3962H46.1012C45.5186 31.3962 45.0465 31.8684 45.0465 32.4509C45.0465 33.0334 45.5186 33.5056 46.1012 33.5056H57.332V36.8564H43.3711C42.7885 36.8564 42.3165 37.3286 42.3165 37.9111C42.3165 38.4936 42.7885 38.9658 43.3711 38.9658H57.332V42.3167H43.3711C42.7885 42.3167 42.3165 42.789 42.3165 43.3714C42.3165 43.9539 42.7885 44.4261 43.3711 44.4261H57.332V47.7249C56.7339 47.6229 56.1189 47.5699 55.4923 47.5699C53.1315 47.5699 50.8466 48.3321 48.9679 49.7318C47.0891 48.3321 44.8043 47.5699 42.4434 47.5699C41.7209 47.5699 41.0145 47.6404 40.3308 47.775V14.0666C40.3308 13.9631 40.3822 13.8669 40.4679 13.8091L51.681 6.25753C51.7323 6.2228 51.7923 6.20452 51.8542 6.20452H57.332V9.55533Z" fill="black"/>
<path d="M25.2158 40.3281H26.0348C26.6174 40.3281 27.0895 39.8559 27.0895 39.2734C27.0895 38.691 26.6174 38.2188 26.0348 38.2188H25.2158C24.6332 38.2188 24.1611 38.691 24.1611 39.2734C24.1611 39.8559 24.6334 40.3281 25.2158 40.3281Z" fill="black"/>
<path d="M43.3711 22.5859H46.1012C46.6838 22.5859 47.1559 22.1137 47.1559 21.5312C47.1559 20.9488 46.6838 20.4766 46.1012 20.4766H43.3711C42.7885 20.4766 42.3164 20.9488 42.3164 21.5312C42.3164 22.1137 42.7885 22.5859 43.3711 22.5859Z" fill="black"/>
<path d="M25.2158 48.5234H26.0348C26.6174 48.5234 27.0895 48.0512 27.0895 47.4688C27.0895 46.8863 26.6174 46.4141 26.0348 46.4141H25.2158C24.6332 46.4141 24.1611 46.8863 24.1611 47.4688C24.1611 48.0512 24.6334 48.5234 25.2158 48.5234Z" fill="black"/>
<path d="M21.8034 46.4141H20.9844C20.4018 46.4141 19.9297 46.8863 19.9297 47.4688C19.9297 48.0512 20.4018 48.5234 20.9844 48.5234H21.8034C22.386 48.5234 22.8581 48.0512 22.8581 47.4688C22.8581 46.8863 22.3858 46.4141 21.8034 46.4141Z" fill="black"/>
<path d="M21.8034 38.2188H20.9844C20.4018 38.2188 19.9297 38.691 19.9297 39.2734C19.9297 39.8559 20.4018 40.3281 20.9844 40.3281H21.8034C22.386 40.3281 22.8581 39.8559 22.8581 39.2734C22.8581 38.691 22.3858 38.2188 21.8034 38.2188Z" fill="black"/>
<path d="M21.8034 42.3203H20.9844C20.4018 42.3203 19.9297 42.7925 19.9297 43.375C19.9297 43.9575 20.4018 44.4297 20.9844 44.4297H21.8034C22.386 44.4297 22.8581 43.9575 22.8581 43.375C22.8581 42.7925 22.3858 42.3203 21.8034 42.3203Z" fill="black"/>
<path d="M29.4478 40.3281H30.2668C30.8494 40.3281 31.3214 39.8559 31.3214 39.2734C31.3214 38.691 30.8494 38.2188 30.2668 38.2188H29.4478C28.8651 38.2188 28.3931 38.691 28.3931 39.2734C28.3931 39.8559 28.8653 40.3281 29.4478 40.3281Z" fill="black"/>
<path d="M29.4478 48.5234H30.2668C30.8494 48.5234 31.3214 48.0512 31.3214 47.4688C31.3214 46.8863 30.8494 46.4141 30.2668 46.4141H29.4478C28.8651 46.4141 28.3931 46.8863 28.3931 47.4688C28.3931 48.0512 28.8653 48.5234 29.4478 48.5234Z" fill="black"/>
<path d="M29.4478 44.4297H30.2668C30.8494 44.4297 31.3214 43.9575 31.3214 43.375C31.3214 42.7925 30.8494 42.3203 30.2668 42.3203H29.4478C28.8651 42.3203 28.3931 42.7925 28.3931 43.375C28.3931 43.9575 28.8653 44.4297 29.4478 44.4297Z" fill="black"/>
</g>
<defs>
<clipPath id="clip0_18059_166798">
<rect width="72" height="72" fill="white"/>
</clipPath>
</defs>
</svg>
