<svg width="72" height="72" viewBox="0 0 72 72" fill="none" xmlns="http://www.w3.org/2000/svg">
<path d="M64.0993 30.4584C63.9567 30.4584 63.8141 30.4584 63.6715 30.4584C63.6405 30.4584 63.5178 30.4784 63.4941 30.4584C63.4743 30.4417 63.4829 30.3625 63.4812 30.3311C63.4761 30.2316 63.4712 30.1321 63.4656 30.0326C63.4268 29.3438 63.3607 28.6557 63.2663 27.9723C63.0363 26.2865 62.6445 24.6298 62.091 23.0186C61.894 22.4454 61.2697 22.14 60.696 22.337C60.1225 22.534 59.8174 23.1585 60.0144 23.732C60.2588 24.4437 60.4656 25.166 60.6416 25.8955H57.2186C55.913 25.8955 54.8509 26.9577 54.8509 28.2632V30.4584H41.7946V28.2632C41.7946 26.9577 40.7324 25.8955 39.4269 25.8955H31.4987C30.1932 25.8955 29.131 26.9577 29.131 28.2632V30.4584H17.1725V28.2632C17.1725 26.9577 16.1104 25.8955 14.8048 25.8955H11.3909C13.0199 19.1924 17.4853 13.4032 23.7278 10.1707L24.6016 13.031C24.7462 13.5041 25.181 13.8084 25.6513 13.8084C25.7574 13.8084 25.8656 13.7928 25.9724 13.7602C26.5522 13.583 26.8788 12.9693 26.7016 12.3893L24.9546 6.67055C24.9505 6.65733 24.9381 6.61725 24.9715 6.57239C25.0048 6.52739 25.0468 6.52739 25.0606 6.52739C25.1427 6.52739 25.2245 6.51825 25.3043 6.49997C26.2481 6.28509 27.2064 6.09905 28.1658 5.94056V17.0415C28.1658 17.6479 28.6572 18.1394 29.2636 18.1394C29.87 18.1394 30.3615 17.6479 30.3615 17.0415V2.80434C30.3615 2.46881 30.6346 2.19586 30.97 2.19586H41.0536C41.3892 2.19586 41.6621 2.46895 41.6621 2.80434V17.0415C41.6621 17.6479 42.1536 18.1394 42.76 18.1394C43.3663 18.1394 43.8578 17.6479 43.8578 17.0415V5.9407C44.8175 6.09905 45.7757 6.28509 46.7191 6.49997C46.7944 6.51713 46.871 6.52627 46.9481 6.52725C46.9621 6.52894 47.027 6.53822 47.0523 6.57239C47.0855 6.61725 47.0731 6.65761 47.0691 6.67069L45.4072 12.1113C45.23 12.6913 45.5566 13.305 46.1364 13.4821C46.2432 13.5148 46.3513 13.5304 46.4576 13.5304C46.9275 13.5304 47.3626 13.2259 47.5072 12.753L48.2965 10.169C52.3474 12.2726 55.7949 15.5517 58.087 19.5081C58.2906 19.8595 58.659 20.0557 59.0379 20.0557C59.2248 20.0557 59.414 20.0078 59.5873 19.9076C60.112 19.6037 60.2908 18.9319 59.9868 18.4072C57.4193 13.9753 53.5223 10.3217 48.9479 8.0363L49.1691 7.31222C49.385 6.60558 49.2567 5.8597 48.8173 5.26627C48.3504 4.63514 47.655 4.37597 47.1095 4.33673C46.0371 4.09486 44.9474 3.8873 43.8577 3.71545V2.80406C43.8581 1.25803 42.6001 0 41.0538 0H30.9701C29.4238 0 28.1658 1.25803 28.1658 2.80434V3.71587C27.078 3.88744 25.9902 4.09444 24.9193 4.33589C24.236 4.37653 23.6177 4.71038 23.2063 5.26627C22.7669 5.86027 22.6386 6.606 22.8545 7.3125L23.0754 8.03545C15.6694 11.727 10.4867 18.6917 8.97172 26.6865C8.96131 26.7223 8.95217 26.7585 8.94542 26.7957C8.78272 27.6839 8.66727 28.5846 8.59639 29.4891C8.57094 29.8118 8.55111 30.1351 8.53747 30.4587H7.92477C5.82425 30.4587 4.11523 32.1581 4.11523 34.247V40.0929V43.7458C4.11523 44.8042 4.86406 45.7172 5.89583 45.9169L11.4072 46.9837C11.9562 48.9479 12.7392 50.8373 13.7421 52.617L10.5982 57.27C10.0063 58.1458 10.1195 59.3242 10.8668 60.0716L16.0329 65.2378C16.7808 65.9853 17.9589 66.0983 18.8349 65.5064L23.4877 62.3625C25.2669 63.3652 27.1564 64.1483 29.1209 64.6973L30.1877 70.2087C30.3885 71.2467 31.3016 72 32.3588 72H39.6648C40.722 72 41.6351 71.2467 41.8359 70.2089L42.2927 67.8489C42.4078 67.2536 42.0186 66.6776 41.4233 66.5625C40.8269 66.4463 40.2519 66.8365 40.1369 67.4318L39.6801 69.7916C39.6787 69.7991 39.6723 69.8043 39.6647 69.8043H32.3586C32.3512 69.8043 32.3446 69.7989 32.3432 69.7916L31.1455 63.6037C31.0645 63.1845 30.7478 62.8507 30.3336 62.7472C28.1074 62.1911 25.9795 61.309 24.0092 60.1256C23.6434 59.906 23.183 59.9183 22.8292 60.1571L17.6051 63.687C17.5989 63.6915 17.5906 63.6905 17.5854 63.685L12.4193 58.5188C12.4139 58.5135 12.4131 58.5052 12.4175 58.4992L15.9471 53.2752C16.1861 52.9214 16.1983 52.4613 15.9786 52.0952C14.7951 50.1244 13.9133 47.9963 13.3571 45.7706C13.2536 45.3565 12.9196 45.0398 12.5006 44.9588L6.31489 43.7629C6.31447 43.7625 6.31081 43.7581 6.31081 43.7458V41.1905H17.4541C18.0242 50.9318 26.1299 58.6822 36.0118 58.6822C45.8937 58.6822 53.9996 50.9318 54.5697 41.1905H65.6893V43.7455C65.6893 43.7535 65.6886 43.7601 65.6878 43.7653L59.5232 44.9585C59.104 45.0395 58.7701 45.3562 58.6666 45.7703C58.1106 47.9962 57.2286 50.1241 56.0451 52.095C55.8254 52.4609 55.8377 52.9211 56.0766 53.2749L59.6063 58.4987C59.6105 58.5051 59.6097 58.5134 59.6045 58.5186L54.4383 63.6847C54.433 63.6902 54.4245 63.6912 54.4185 63.6865L49.1945 60.1568C48.8406 59.9181 48.3805 59.9057 48.0146 60.1253C46.0443 61.3087 43.9162 62.1907 41.6901 62.7469C41.1019 62.8938 40.744 63.4898 40.8909 64.078C41.0377 64.6664 41.6343 65.0239 42.2221 64.8772C44.4314 64.3252 46.5522 63.4802 48.5361 62.3623L53.1889 65.5059C54.0647 66.0978 55.2432 65.9852 55.9911 65.2375L61.1572 60.0713C61.9047 59.3238 62.0177 58.1455 61.4258 57.2695L58.2819 52.6165C59.2848 50.8371 60.068 48.9476 60.6168 46.9834L66.1282 45.9166C67.1626 45.7163 67.885 44.8235 67.885 43.7455V40.0926V34.2467C67.885 32.1578 66.1868 30.4584 64.0993 30.4584ZM57.0468 28.2632C57.0468 28.1685 57.1241 28.0912 57.2189 28.0912H61.0644C61.0889 28.261 61.1122 28.431 61.133 28.6014C61.1478 28.7227 61.1609 28.844 61.1738 28.9654C61.1904 29.1212 61.2062 29.277 61.2198 29.4332C61.2285 29.5328 61.2368 29.6324 61.2443 29.7319C61.2609 29.9541 61.2755 30.1764 61.286 30.3995C61.287 30.4192 61.2886 30.4387 61.2894 30.4583H57.0468V28.2632ZM31.327 28.2632C31.327 28.1685 31.4042 28.0912 31.499 28.0912H39.4272C39.5219 28.0912 39.5991 28.1685 39.5991 28.2632V30.4584H31.327V28.2632ZM10.7847 29.6689C10.7875 29.6324 10.7907 29.5958 10.7937 29.5591C10.8349 29.0663 10.8921 28.5771 10.9631 28.0911H14.805C14.8998 28.0911 14.977 28.1685 14.977 28.2632V30.4584H10.7346C10.7467 30.1944 10.764 29.9313 10.7847 29.6689ZM65.6893 38.9947H28.8707C28.2643 38.9947 27.7729 39.4862 27.7729 40.0926C27.7729 40.699 28.2643 41.1905 28.8707 41.1905H52.3683C51.8015 49.7201 44.6826 56.4864 36.0119 56.4864C27.3413 56.4864 20.2224 49.7201 19.6556 41.1905H23.2349C23.8413 41.1905 24.3328 40.699 24.3328 40.0926C24.3328 39.4862 23.8413 38.9947 23.2349 38.9947H6.31095V34.2467C6.31095 33.3685 7.03489 32.6542 7.92477 32.6542H64.0993C64.976 32.6542 65.6893 33.3686 65.6893 34.2467V38.9947Z" fill="black"/>
</svg>
