<svg width="32" height="32" viewBox="0 0 32 32" fill="none" xmlns="http://www.w3.org/2000/svg">
<path fill-rule="evenodd" clip-rule="evenodd" d="M16 0C24.8889 0 32 7.11111 32 16C32 24.8889 24.8889 32 16 32C7.11111 32 0 24.8889 0 16C0 7.11111 7.11111 0 16 0ZM11.9111 6.22222H20.2667C23.4667 6.22222 25.9556 8.71111 25.9556 11.7333V20.0889C25.9556 23.1111 23.4667 25.6 20.2667 25.6H11.9111C8.71111 25.6 6.22222 23.1111 6.22222 20.0889V11.9111C6.22222 8.71111 8.71111 6.22222 11.9111 6.22222ZM16 11.0222C18.8444 11.0222 21.1556 13.3333 21.1556 16.1778C21.1556 19.0222 18.8444 21.3333 16 21.3333C13.1556 21.3333 10.6667 19.0222 10.6667 16.1778C10.6667 13.3333 12.9778 11.0222 16 11.0222ZM16 13.1556C17.6 13.1556 19.0222 14.5778 19.0222 16.1778C19.0222 17.7778 17.6 19.2 16 19.2C14.4 19.2 12.9778 17.7778 12.9778 16.1778C12.9778 14.5778 14.2222 13.1556 16 13.1556ZM20.9778 10.1333C21.5111 10.1333 22.0444 10.4889 22.0444 11.2C22.0444 11.7333 21.6889 12.2667 20.9778 12.2667C20.4444 12.2667 19.9111 11.9111 19.9111 11.2C19.9111 10.4889 20.4444 10.1333 20.9778 10.1333ZM12.8 8.35556H19.3778C21.8667 8.35556 23.8222 10.3111 23.8222 12.8V19.3778C23.8222 21.8667 21.8667 23.8222 19.3778 23.8222H12.8C10.3111 23.8222 8.35556 21.8667 8.35556 19.3778V12.8C8.17778 10.3111 10.3111 8.35556 12.8 8.35556Z" fill="#474747"/>
</svg>
