<svg width="40" height="40" viewBox="0 0 40 40" fill="none" xmlns="http://www.w3.org/2000/svg">
<path d="M17.4836 3.71563L9.16692 6.83228C7.25025 7.54895 5.68359 9.8156 5.68359 11.8656V24.2489C5.68359 26.2156 6.98361 28.7989 8.56695 29.9823L15.7336 35.3323C18.0836 37.099 21.9502 37.099 24.3002 35.3323L31.4669 29.9823C33.0503 28.7989 34.3502 26.2156 34.3502 24.2489V11.8656C34.3502 9.8156 32.7836 7.54895 30.8669 6.83228L22.5503 3.71563C21.1336 3.19896 18.8669 3.19896 17.4836 3.71563Z" stroke="#171A1C" stroke-width="1.5" stroke-linecap="round" stroke-linejoin="round"/>
<path d="M20.0021 18.1987C19.9354 18.1987 19.8521 18.1987 19.7854 18.1987C18.2188 18.1487 16.9688 16.8487 16.9688 15.2654C16.9688 13.6487 18.2854 12.332 19.9021 12.332C21.5188 12.332 22.8354 13.6487 22.8354 15.2654C22.8188 16.8654 21.5688 18.1487 20.0021 18.1987Z" stroke="#171A1C" stroke-width="1.5" stroke-linecap="round" stroke-linejoin="round"/>
<path d="M16.6844 22.8656C15.0844 23.9323 15.0844 25.6823 16.6844 26.7489C18.501 27.9656 21.4844 27.9656 23.301 26.7489C24.901 25.6823 24.901 23.9323 23.301 22.8656C21.501 21.649 18.5177 21.649 16.6844 22.8656Z" stroke="#171A1C" stroke-width="1.5" stroke-linecap="round" stroke-linejoin="round"/>
</svg>
