<svg width="32" height="32" viewBox="0 0 32 32" fill="none" xmlns="http://www.w3.org/2000/svg">
<path d="M32 16C32 24.8533 24.8533 32 16 32C7.14667 32 0 24.8533 0 16C0 7.14667 7.14667 0 16 0C24.8533 0 32 7.14667 32 16ZM12.0533 8.32C12.0533 7.04 10.9867 5.97333 9.38667 5.97333C7.78667 5.97333 6.72 6.93333 6.72 8.32C6.72 9.6 7.78667 10.6667 9.38667 10.6667C10.9867 10.6667 12.0533 9.6 12.0533 8.32ZM11.3067 12.6933H7.36V24H11.4133V12.6933H11.3067ZM26.0267 18.0267C26.0267 14.4 24.2133 12.0533 21.3333 12.0533C19.7333 12.0533 18.56 13.0133 18.0267 14.5067L17.92 12.8H13.8667C13.8667 13.2267 13.9733 15.4667 13.9733 15.4667V24.1067H18.0267V18.1333C18.0267 16.5333 18.7733 15.4667 19.9467 15.4667C21.12 15.4667 21.9733 16.1067 21.9733 18.1333V24.1067H26.0267V18.0267Z" fill="#474747"/>
</svg>
