<svg width="16" height="16" viewBox="0 0 16 16" fill="none" xmlns="http://www.w3.org/2000/svg">
<path d="M7.99983 0.710938C6.55822 0.710938 5.14899 1.13842 3.95034 1.93934C2.75169 2.74025 1.81745 3.87862 1.26577 5.21049C0.714096 6.54236 0.569751 8.00791 0.850995 9.42182C1.13224 10.8357 1.82644 12.1345 2.84581 13.1538C3.86518 14.1732 5.16393 14.8674 6.57784 15.1487C7.99174 15.4299 9.4573 15.2856 10.7892 14.7339C12.121 14.1822 13.2594 13.248 14.0603 12.0493C14.8612 10.8507 15.2887 9.44143 15.2887 7.99983C15.2868 6.06727 14.5183 4.21441 13.1518 2.84788C11.7852 1.48136 9.93239 0.71282 7.99983 0.710938ZM6.49583 10.9474C6.93618 10.9968 7.37894 11.0217 7.82205 11.022C8.38823 11.022 8.95373 10.9828 9.5145 10.9047C9.18861 12.0473 8.67688 13.1284 7.99983 14.1047C7.33049 13.1409 6.82251 12.0745 6.49583 10.9474ZM7.82205 9.95538C7.28999 9.95497 6.75872 9.91456 6.23272 9.83449C6.1084 9.17087 6.04532 8.49722 6.04427 7.82205C6.04397 7.26963 6.08677 6.71803 6.17227 6.17227C6.71808 6.08713 7.26965 6.04434 7.82205 6.04427C8.49722 6.04532 9.17087 6.1084 9.8345 6.23272C9.91457 6.75871 9.95498 7.28999 9.95539 7.82205C9.95442 8.47789 9.89493 9.13234 9.77761 9.7776C9.13234 9.89493 8.47789 9.95442 7.82205 9.95538ZM5.10561 9.59983C3.92353 9.29357 2.81647 8.74911 1.85227 7.99983C2.79949 7.25673 3.88836 6.71471 5.05227 6.40694C4.99937 6.87675 4.97444 7.34928 4.97761 7.82205C4.97725 8.41696 5.02002 9.01111 5.10561 9.59983ZM7.99983 1.85227C8.74886 2.81662 9.29329 3.92364 9.59983 5.1056C9.01111 5.02002 8.41696 4.97724 7.82205 4.9776C7.3467 4.97771 6.87178 5.00621 6.39983 5.06294C6.71165 3.89594 7.25585 2.80391 7.99983 1.85227ZM10.9474 6.49583C12.0757 6.82215 13.1433 7.33014 14.1083 7.99983C13.1319 8.67682 12.0508 9.18855 10.9083 9.51449C10.9852 8.95364 11.0232 8.38814 11.0221 7.82205C11.0217 7.37893 10.9968 6.93618 10.9474 6.49583ZM14.0834 6.7056C13.0505 6.08371 11.9297 5.62104 10.7589 5.33316C10.5034 4.12698 10.035 2.97597 9.37583 1.93405C10.5333 2.19873 11.5912 2.78836 12.4251 3.63361C13.2591 4.47887 13.8344 5.54463 14.0834 6.7056ZM6.61672 1.9376C5.97031 2.95758 5.50705 4.08264 5.24783 5.26205C4.06842 5.52126 2.94336 5.98452 1.92339 6.63094C2.18474 5.48412 2.76509 4.4346 3.59743 3.60351C4.42977 2.77243 5.48018 2.19367 6.62739 1.93405L6.61672 1.9376ZM1.93405 9.37227C2.97573 10.0327 4.12675 10.5023 5.33316 10.7589C5.6207 11.931 6.08339 13.0529 6.70561 14.0869C5.54372 13.8374 4.47732 13.261 3.63197 12.4258C2.78663 11.5905 2.19754 10.5311 1.93405 9.37227ZM9.29405 14.0834C9.92922 13.0284 10.3981 11.882 10.6843 10.6843C11.882 10.3981 13.0284 9.92921 14.0834 9.29405C13.8309 10.4687 13.2447 11.5455 12.3951 12.3951C11.5455 13.2446 10.4687 13.8309 9.29405 14.0834Z" fill="#555E68"/>
</svg>
