<svg width="18" height="18" viewBox="0 0 18 18" fill="none" xmlns="http://www.w3.org/2000/svg">
<path d="M6.31066 13.8107C6.59196 13.5294 6.75 13.1478 6.75 12.75C6.75 12.3522 6.59196 11.9706 6.31066 11.6893C6.02936 11.408 5.64782 11.25 5.25 11.25C4.85218 11.25 4.47064 11.408 4.18934 11.6893C3.90804 11.9706 3.75 12.3522 3.75 12.75C3.75 13.1478 3.90804 13.5294 4.18934 13.8107C4.47064 14.092 4.85218 14.25 5.25 14.25C5.64782 14.25 6.02936 14.092 6.31066 13.8107Z" stroke="#636B74"/>
<path d="M13.8107 13.8107C14.092 13.5294 14.25 13.1478 14.25 12.75C14.25 12.3522 14.092 11.9706 13.8107 11.6893C13.5294 11.408 13.1478 11.25 12.75 11.25C12.3522 11.25 11.9706 11.408 11.6893 11.6893C11.408 11.9706 11.25 12.3522 11.25 12.75C11.25 13.1478 11.408 13.5294 11.6893 13.8107C11.9706 14.092 12.3522 14.25 12.75 14.25C13.1478 14.25 13.5294 14.092 13.8107 13.8107Z" stroke="#636B74"/>
<path d="M9.75 12V4.5C9.75 4.30109 9.67098 4.11032 9.53033 3.96967C9.38968 3.82902 9.19891 3.75 9 3.75H3C2.80109 3.75 2.61032 3.82902 2.46967 3.96967C2.32902 4.11032 2.25 4.30109 2.25 4.5V12C2.25 12.1989 2.32902 12.3897 2.46967 12.5303C2.61032 12.671 2.80109 12.75 3 12.75H3.75M9.75 12C9.75 12.1989 9.67098 12.3897 9.53033 12.5303C9.38968 12.671 9.19891 12.75 9 12.75H6.75M9.75 12V6C9.75 5.80109 9.82902 5.61032 9.96967 5.46967C10.1103 5.32902 10.3011 5.25 10.5 5.25H12.4395C12.6384 5.25004 12.8291 5.32909 12.9697 5.46975L15.5303 8.03025C15.6709 8.17087 15.75 8.3616 15.75 8.5605V12C15.75 12.1989 15.671 12.3897 15.5303 12.5303C15.3897 12.671 15.1989 12.75 15 12.75H14.25M9.75 12C9.75 12.1989 9.82902 12.3897 9.96967 12.5303C10.1103 12.671 10.3011 12.75 10.5 12.75H11.25M3.75 12.75C3.75 13.1478 3.90804 13.5294 4.18934 13.8107C4.47064 14.092 4.85218 14.25 5.25 14.25C5.64782 14.25 6.02936 14.092 6.31066 13.8107C6.59196 13.5294 6.75 13.1478 6.75 12.75M3.75 12.75C3.75 12.3522 3.90804 11.9706 4.18934 11.6893C4.47064 11.408 4.85218 11.25 5.25 11.25C5.64782 11.25 6.02936 11.408 6.31066 11.6893C6.59196 11.9706 6.75 12.3522 6.75 12.75M14.25 12.75C14.25 13.1478 14.092 13.5294 13.8107 13.8107C13.5294 14.092 13.1478 14.25 12.75 14.25C12.3522 14.25 11.9706 14.092 11.6893 13.8107C11.408 13.5294 11.25 13.1478 11.25 12.75M14.25 12.75C14.25 12.3522 14.092 11.9706 13.8107 11.6893C13.5294 11.408 13.1478 11.25 12.75 11.25C12.3522 11.25 11.9706 11.408 11.6893 11.6893C11.408 11.9706 11.25 12.3522 11.25 12.75" stroke="#636B74" stroke-linecap="round" stroke-linejoin="round"/>
</svg>
