<svg width="20" height="11" viewBox="0 0 20 11" fill="none" xmlns="http://www.w3.org/2000/svg">
<path d="M5.58832 9.96295C5.74015 10.1148 5.74015 10.3609 5.58832 10.5128C5.43649 10.6646 5.19033 10.6646 5.0385 10.5128L0.113964 5.58823C0.0695457 5.54381 0.0381222 5.49132 0.0196953 5.43548C0.00908852 5.40334 0.00278664 5.3701 0.000787735 5.33665C-0.000488281 5.31527 -7.62939e-06 5.2938 0.00222969 5.27249C0.00533295 5.24275 0.0117893 5.21402 0.0212097 5.18666C0.0398235 5.1325 0.0707417 5.08163 0.113964 5.03841L5.0385 0.113871C5.19033 -0.0379569 5.43649 -0.0379569 5.58832 0.113871C5.74015 0.265699 5.74015 0.51186 5.58832 0.663688L1.32748 4.92453H19.3959C19.6106 4.92453 19.7847 5.0986 19.7847 5.31331C19.7847 5.52803 19.6106 5.70209 19.3959 5.70209H1.32747L5.58832 9.96295Z" fill="white"/>
</svg>
