<svg width="20" height="11" viewBox="0 0 20 11" fill="none" xmlns="http://www.w3.org/2000/svg">
<path d="M14.1963 9.96295C14.0445 10.1148 14.0445 10.3609 14.1963 10.5128C14.3482 10.6646 14.5943 10.6646 14.7462 10.5128L19.6707 5.58823C19.7151 5.54381 19.7465 5.49132 19.765 5.43548C19.7756 5.40334 19.7819 5.3701 19.7839 5.33665C19.7852 5.31527 19.7847 5.2938 19.7824 5.27249C19.7793 5.24275 19.7729 5.21402 19.7635 5.18666C19.7448 5.1325 19.7139 5.08163 19.6707 5.03841L14.7462 0.113871C14.5943 -0.0379569 14.3482 -0.0379569 14.1963 0.113871C14.0445 0.265699 14.0445 0.51186 14.1963 0.663688L18.4572 4.92453H0.388779C0.174062 4.92453 0 5.0986 0 5.31331C0 5.52803 0.174062 5.70209 0.388779 5.70209H18.4572L14.1963 9.96295Z" fill="white"/>
</svg>
